<svg id="Lag_1" data-name="Lag 1" xmlns="http://www.w3.org/2000/svg" viewBox="0 0 585 585"><defs><style>.cls-1{fill:#777;}.cls-2{fill:none;}.cls-3{fill:#bcbcbc;}.cls-4{fill:#3a3a37;}.cls-5{fill:#1e1e1d;}.cls-6{fill:#b2b2b2;}.cls-7{fill:#e2e2e2;}.cls-8{fill:#fff;}.cls-9{fill:#2a7a97;}</style></defs><title>sprutte</title><path class="cls-1" d="M312.71,187.87c.3.55.6,1.12.86,1.7a21.77,21.77,0,0,1-.59,18.71,100.58,100.58,0,0,0,36.13-16.54c-3.6-6.1-7.08-11.75-10.45-16.9A81,81,0,0,1,312.71,187.87Z"/><ellipse class="cls-2" cx="294.02" cy="195.1" rx="20.29" ry="21.73"/><path class="cls-3" d="M295.54,173.29c-.51,0-1,0-1.52.07a21.79,21.79,0,0,1,0,43.47c.51,0,1,.08,1.52.08a21.81,21.81,0,1,0,0-43.62Z"/><path class="cls-2" d="M277.6,179.2a21.79,21.79,0,0,0,14.9,37.71c.51,0,1,0,1.52-.08s1,.08,1.52.08a21.79,21.79,0,0,0,20-30.55,36.28,36.28,0,0,1-37.92-7.16Z"/><path class="cls-4" d="M287.2,130.9l.94-.28Z"/><path class="cls-4" d="M274.08,138.4c.36-.29.71-.58,1.07-.85C274.79,137.82,274.44,138.11,274.08,138.4Z"/><path class="cls-4" d="M285.6,131.46l.92-.33Z"/><path class="cls-4" d="M288.8,130.43l1-.22Z"/><path class="cls-4" d="M290.39,130.08c.36-.07.72-.12,1.08-.18C291.11,130,290.75,130,290.39,130.08Z"/><path class="cls-4" d="M280.74,133.78l.94-.52Z"/><path class="cls-4" d="M277.45,135.87l1-.67Z"/><path class="cls-4" d="M284,132.13l.93-.39Z"/><path class="cls-4" d="M282.37,132.9l.93-.45Z"/><path class="cls-4" d="M275.78,137.07l1-.75Z"/><path class="cls-4" d="M292,129.82c.53-.06,1.06-.12,1.59-.15C293.05,129.7,292.52,129.76,292,129.82Z"/><path class="cls-4" d="M270.16,141.84c-1.15,1.08-2.3,2.22-3.46,3.44C267.86,144.06,269,142.92,270.16,141.84Z"/><path class="cls-4" d="M279.1,134.77l1-.59Z"/><path class="cls-4" d="M272.34,139.87l1.15-1Z"/><path class="cls-4" d="M270.5,141.52c.45-.41.89-.82,1.33-1.21C271.39,140.7,271,141.11,270.5,141.52Z"/><path class="cls-2" d="M302.32,174.37a22,22,0,0,0-6.78-1.08h-.07a21.67,21.67,0,0,0,6.77,1.09Z"/><path class="cls-5" d="M275.15,137.55l.63-.48Z"/><path class="cls-5" d="M271.83,140.31c.17-.16.34-.3.51-.44C272.17,140,272,140.15,271.83,140.31Z"/><path class="cls-5" d="M278.43,135.2l.67-.43Z"/><polygon class="cls-5" points="266.7 145.28 266.7 145.28 266.7 145.28 266.7 145.28"/><path class="cls-5" d="M276.79,136.32l.66-.45Z"/><path class="cls-5" d="M270.16,141.84l.34-.32Z"/><path class="cls-5" d="M273.49,138.88l.59-.48Z"/><path class="cls-5" d="M288.14,130.62l.66-.19Z"/><path class="cls-5" d="M291.47,129.9l.52-.08Z"/><path class="cls-5" d="M289.78,130.21l.61-.13Z"/><path class="cls-5" d="M286.52,131.13l.68-.23Z"/><path class="cls-5" d="M283.3,132.45l.68-.32Z"/><path class="cls-5" d="M280.06,134.18l.68-.4Z"/><path class="cls-5" d="M284.91,131.74l.69-.28Z"/><path class="cls-5" d="M281.68,133.26l.69-.36Z"/><path class="cls-3" d="M293.58,129.67c-8.45-.52-16.86,3.32-25.77,11.52a37.34,37.34,0,0,0-1.11,4.09C276.09,135.42,284.85,130.21,293.58,129.67Z"/><path class="cls-2" d="M273.71,206.14a21.78,21.78,0,0,0,18.79,10.77c.51,0,1,0,1.52-.08s1,.08,1.52.08a21.79,21.79,0,0,0,19.39-11.85,100.56,100.56,0,0,1-41.22,1.08Z"/><path class="cls-2" d="M314.66,184.65a21.75,21.75,0,0,0-19.12-11.36h-.07c-.49,0-1,0-1.45.07s-1-.07-1.52-.07a21.69,21.69,0,0,0-14.9,5.91,22,22,0,0,0-4.76,6.52,81.23,81.23,0,0,0,41.82-1.07Z"/><path class="cls-1" d="M312.71,187.87a81.23,81.23,0,0,1-41.82,1.07,21.62,21.62,0,0,0,.87,20.42A100.56,100.56,0,0,0,313,208.28a21.77,21.77,0,0,0,.59-18.71C313.31,189,313,188.42,312.71,187.87Z"/><path class="cls-1" d="M289.78,8.62a101.19,101.19,0,0,0-58.7,183.61c3.59-6.12,7-11.83,10.34-17A81.29,81.29,0,0,1,221.19,66.07a81.35,81.35,0,1,1,139.16,84.22,81.68,81.68,0,0,1-21.69,24.55c3.37,5.15,6.85,10.8,10.45,16.9A101.17,101.17,0,0,0,289.78,8.62Z"/><path class="cls-2" d="M289.78,28.44a81.27,81.27,0,0,0-68.59,37.63A81.32,81.32,0,0,0,245.46,173.5C253,161.73,260,152.31,266.7,145.28h0c1.16-1.22,2.31-2.36,3.46-3.44l.34-.32c.45-.41.89-.82,1.33-1.21.17-.16.34-.3.51-.44l1.15-1,.59-.48c.36-.29.71-.58,1.07-.85l.63-.48,1-.75.66-.45,1-.67.67-.43,1-.59.68-.4.94-.52.69-.36.93-.45.68-.32.93-.39.69-.28.92-.33.68-.23.94-.28.66-.19,1-.22.61-.13c.36-.07.72-.12,1.08-.18l.52-.08c.53-.06,1.06-.12,1.59-.15a26.53,26.53,0,0,1,6.46,1.25c7.6,2.46,15.35,8.4,23.63,17.84a179.89,179.89,0,0,1,12.61,16.41q2.14,3.09,4.33,6.45a81.71,81.71,0,0,0,19.74-21.33A81.36,81.36,0,0,0,289.78,28.44Z"/><path class="cls-1" d="M291.73,25.23a81.29,81.29,0,0,0-70.54,40.84,81.35,81.35,0,0,1,139.16,84.22A81.35,81.35,0,0,0,291.73,25.23Z"/><path class="cls-3" d="M266.7,145.28a37.34,37.34,0,0,1,1.11-4.09c-7.66,7.05-15.69,17.33-24.43,30.81.68.51,1.38,1,2.08,1.5C253,161.73,260,152.31,266.7,145.28Z"/><path class="cls-3" d="M159.21,333c-41.34,84.46-9.61,186.17,133.15,186.17l1.53,0c-141.46-.72-172.83-102-131.64-186.15,30.08-61.45,53.33-109,72.88-142.57-.73-.49-1.45-1-2.16-1.51C213.24,222.65,189.74,270.66,159.21,333Z"/><path class="cls-6" d="M314.66,184.65a81.23,81.23,0,0,1-41.82,1.07,21.62,21.62,0,0,0,.87,20.42,100.56,100.56,0,0,0,41.22-1.08,21.65,21.65,0,0,0,.59-18.7C315.26,185.77,315,185.21,314.66,184.65Z"/><path class="cls-6" d="M291.73,5.4A101.19,101.19,0,0,0,233,189q5.39-9.18,10.41-17a81.35,81.35,0,1,1,97.23-.38q5.06,7.74,10.45,16.91A101.17,101.17,0,0,0,291.73,5.4Z"/><path class="cls-5" d="M235.13,190.47c3.56-6.13,7-11.77,10.33-17h0c-3.33,5.2-6.77,10.84-10.33,17Z"/><path class="cls-6" d="M314.66,184.65c.31.56.6,1.12.86,1.71a21.65,21.65,0,0,1-.59,18.7,100.58,100.58,0,0,0,36.13-16.53q-5.4-9.17-10.45-16.91A81,81,0,0,1,314.66,184.65Z"/><path class="cls-7" d="M303.39,6.07c-29.91-4-56.77,7.5-72.88,20,24-13.55,43-20.75,71.73-17.4,44.64,5.21,82.67,40.3,88.6,84.21,1.86,13.77,2.9,25.73-3.2,46.05,5.05-13.25,6.4-30.41,4.3-46.37C386.09,48.08,350.63,12.37,303.39,6.07Z"/><path class="cls-4" d="M246.13,173.94h0Z"/><path class="cls-8" d="M235.13,190.47a100.66,100.66,0,0,0,38.58,15.67,21.67,21.67,0,0,1-3-11,21.45,21.45,0,0,1,.88-6.09,80.73,80.73,0,0,1-28.11-12.36C240.76,181,238,185.56,235.13,190.47Z"/><path class="cls-3" d="M233,189c.71.51,1.43,1,2.16,1.51,2.86-4.91,5.63-9.5,8.33-13.82-.7-.49-1.4-1-2.09-1.5Q237.27,181.6,233,189Z"/><path class="cls-5" d="M244.11,172.53l0,0Z"/><path class="cls-7" d="M243.46,176.65l2-3.15-2,3.15Z"/><path class="cls-7" d="M244.11,172.53A81.4,81.4,0,0,1,221.05,66a81.33,81.33,0,0,0,20.32,109.16c.67-1.06,1.34-2.12,2-3.15Z"/><path class="cls-7" d="M244.15,172.56l1.31.94.67.44C245.47,173.49,244.8,173,244.15,172.56Z"/><path class="cls-3" d="M244.11,172.53l-.73-.53c-.67,1-1.34,2.09-2,3.15.69.51,1.39,1,2.09,1.5l2-3.15-1.31-.94Z"/><path class="cls-7" d="M291.63,187.84A81,81,0,0,1,246.15,174a80.86,80.86,0,0,0,26.69,11.77,22.85,22.85,0,0,0-1.27,3.29,81.29,81.29,0,0,0,88.65-38.79A81.3,81.3,0,0,1,291.63,187.84Z"/><path class="cls-8" d="M336.28,165.17a179.89,179.89,0,0,0-12.61-16.41c-8.28-9.44-16-15.38-23.63-17.84a26.53,26.53,0,0,0-6.46-1.25c-.53,0-1.06.09-1.59.15l-.52.08c-.36.06-.72.11-1.08.18l-.61.13-1,.22-.66.19-.94.28-.68.23-.92.33-.69.28-.93.39-.68.32-.93.45-.69.36-.94.52-.68.4-1,.59-.67.43-1,.67-.66.45-1,.75-.63.48c-.36.27-.71.56-1.07.85l-.59.48-1.15,1c-.17.14-.34.28-.51.44-.44.39-.88.8-1.33,1.21l-.34.32c-1.15,1.08-2.3,2.22-3.46,3.44h0c-6.68,7-13.7,16.45-21.24,28.22l-2,3.15A80.73,80.73,0,0,0,271.57,189a22.85,22.85,0,0,1,1.27-3.29,22,22,0,0,1,4.76-6.52,21.69,21.69,0,0,1,14.9-5.91c.51,0,1,0,1.52.07s1-.07,1.45-.07h.07a21.75,21.75,0,0,1,19.12,11.36,81,81,0,0,0,25.95-13Q338.42,168.26,336.28,165.17Z"/><path class="cls-1" d="M314.27,205.22s19.74-4,36.79-16.69l.72,1.21s-13.94,12-38.8,18.54"/><path class="cls-9" d="M273.17,376.78a18.59,18.59,0,0,1-37.18-.3,18.59,18.59,0,1,1,37.18.3Zm-18.36-9.84c-4.92-.16-9.66,4.47-9.73,9.49a9.86,9.86,0,0,0,9.1,9.55,9.6,9.6,0,0,0,9.9-9.15A9.84,9.84,0,0,0,254.81,366.94Z"/><path class="cls-8" d="M345.94,374.19c-.05-.4-.1-.79-.17-1.17,0-.21-.09-.42-.14-.63s-.17-.71-.27-1.05-.12-.42-.19-.63-.24-.69-.37-1c-.07-.18-.14-.37-.22-.56-.17-.39-.36-.77-.55-1.14l-.18-.37c-.27-.49-.55-1-.86-1.42-.08-.13-.17-.25-.26-.37-.23-.33-.47-.66-.72-1l-.4-.48c-.23-.26-.46-.52-.7-.77s-.31-.32-.47-.47-.49-.47-.75-.69l-.49-.43c-.29-.23-.58-.44-.87-.66s-.31-.23-.47-.33c-.45-.31-.92-.6-1.4-.87l-.2-.1c-.43-.23-.85-.44-1.29-.63-.19-.09-.38-.16-.57-.23s-.67-.27-1-.38l-.65-.2c-.17-.05-.35-.12-.52-.16V326.24a1.44,1.44,0,0,0-1.44-1.44H319.35a1.34,1.34,0,0,0-1.33,1,1.28,1.28,0,0,0,1.26,1.52h4.45a.86.86,0,0,1,.85.86.85.85,0,0,1-.85.85h-2.19a1.28,1.28,0,0,0,0,2.56h2.14a.86.86,0,0,1,.85.86.85.85,0,0,1-.85.85h-3.24a1.32,1.32,0,0,0-1.32,1.05,1.28,1.28,0,0,0,1.26,1.52h3.3a.84.84,0,0,1,0,1.68H321.6a1.32,1.32,0,0,0-1.32,1.05,1.28,1.28,0,0,0,1.26,1.52l2.14,0v18.11l-.86.23c-.44.11-.88.25-1.31.4s-.62.2-.92.33-.5.22-.75.34l-.78.37-.73.41-.73.43-.68.46-.7.52-.62.5c-.24.19-.46.4-.68.6s-.38.34-.55.52-.48.51-.71.77-.29.3-.42.46c-.35.42-.68.85-1,1.3l-.29.45c-.21.32-.42.65-.61,1s-.21.39-.31.59-.32.61-.46.92-.18.43-.27.64-.25.64-.37,1-.15.44-.21.66-.2.68-.28,1-.11.43-.15.65c-.08.38-.14.77-.19,1.15,0,.19-.06.38-.08.57a17.34,17.34,0,0,0-.11,1.77,18.66,18.66,0,0,0,24.23,18,18.26,18.26,0,0,0,6.25-3.4,18.8,18.8,0,0,0,3.56-3.94,18.84,18.84,0,0,0,3.14-10.4,17.34,17.34,0,0,0-.09-1.77C346,374.56,346,374.37,345.94,374.19ZM327.43,386a9.85,9.85,0,0,1-9.42-9.21,9.5,9.5,0,1,1,19-.3A9.7,9.7,0,0,1,327.43,386Z"/><path class="cls-8" d="M255,357.84a18.63,18.63,0,1,0-.53,37.26,18.63,18.63,0,0,0,.53-37.26ZM254.18,386a9.86,9.86,0,0,1-9.1-9.55c.07-5,4.81-9.65,9.73-9.49a9.84,9.84,0,0,1,9.27,9.89A9.6,9.6,0,0,1,254.18,386Z"/><path class="cls-8" d="M425.51,333c-30.85-62.65-54.57-110.81-74.45-144.51a100.58,100.58,0,0,1-36.13,16.53,21.79,21.79,0,0,1-19.39,11.85c-.51,0-1,0-1.52-.08s-1,.08-1.52.08a21.78,21.78,0,0,1-18.79-10.77,100.66,100.66,0,0,1-38.58-15.67c-19.55,33.6-42.8,81.12-72.88,142.57-41.19,84.16-9.82,185.43,131.64,186.15C435.54,518.47,467.28,417.85,425.51,333ZM396.67,430.2h0c-17.85,15.54-44.4,13.68-63.29-5.92a64.94,64.94,0,0,1-10.72-15h-.34c6.28,19.51,17.36,35.57,30.29,45.39a8.68,8.68,0,0,1,1,.85c2.95,3,4.06,5.95-2.76,6h0c-24.31,1.47-48.58-17.35-57.16-46.11-.44-1.48-.82-3-1.16-4.44-.34,1.48-.72,3-1.16,4.44-8.58,28.76-32.85,47.58-57.16,46.11h0c-6.82-.06-5.71-3-2.76-6a8.68,8.68,0,0,1,1-.85c12.93-9.82,24-25.88,30.29-45.39h-.31a64.56,64.56,0,0,1-10.75,15c-18.89,19.6-45.44,21.46-63.29,5.92h0c-5.17-4.05-3.07-5.91.48-6.76a5.84,5.84,0,0,1,1.1-.16c.93-.06,1.87-.14,2.81-.25a71.2,71.2,0,0,0,14.69-3.87l.71-.29h0l1.21-.53c11.88-5.38,13.23-12.52,13.35-14.78v-.71h0q0-28.65,0-57.3c.08-41.45,32.71-72.73,74-71,35.48,1.48,65.5,32.64,65.57,68.13q.06,30.07,0,60.16v0s0,.09,0,.25v.19c0,1.88.92,9.47,13.34,15.1l1.21.53h0l.71.29A71.2,71.2,0,0,0,392.28,423c.94.11,1.88.19,2.81.25a5.84,5.84,0,0,1,1.1.16C399.74,424.29,401.84,426.15,396.67,430.2Z"/><path class="cls-9" d="M323.09,340.15h.59v.5A.51.51,0,0,0,323.09,340.15Z"/><polygon class="cls-8" points="113.36 585 113.26 546.31 94.28 578.18 87.56 578.18 68.67 547.13 68.67 585 54.67 585 54.67 520.51 67.02 520.51 91.15 560.59 114.92 520.51 127.17 520.51 127.36 585 113.36 585"/><path class="cls-8" d="M135.55,555.52V519.41h14.92V555c0,12.25,5.35,17.32,14.38,17.32s14.37-5.07,14.37-17.32V519.41H194v36.11c0,19-10.87,29.48-29.21,29.48S135.55,574.5,135.55,555.52Z"/><polygon class="cls-8" points="202.29 520.51 217.21 520.51 217.21 572.84 249.55 572.84 249.55 585 202.29 585 202.29 520.51"/><polygon class="cls-8" points="270.19 532.67 249.55 532.67 249.55 520.51 305.75 520.51 305.75 532.67 285.11 532.67 285.11 585 270.19 585 270.19 532.67"/><rect class="cls-8" x="314.08" y="520.51" width="14.93" height="64.49"/><polygon class="cls-8" points="360.82 559.66 352.16 568.69 352.16 585 337.33 585 337.33 520.51 352.16 520.51 352.16 550.63 380.72 520.51 397.31 520.51 370.59 549.25 398.87 585 381.46 585 360.82 559.66"/><polygon class="cls-8" points="457.05 573.02 457.05 585 407.12 585 407.12 520.51 457.05 520.51 457.05 532.49 421.95 532.49 421.95 546.49 451.89 546.49 451.89 558.1 421.95 558.1 421.95 573.02 457.05 573.02"/><polygon class="cls-8" points="505.27 562.15 505.27 585 490.35 585 490.35 561.97 465.38 520.51 481.23 520.51 498.45 549.16 515.68 520.51 530.33 520.51 505.27 562.15"/></svg>