<?xml version="1.0" encoding="utf-8"?>
<!-- Generator: Adobe Illustrator 23.1.1, SVG Export Plug-In . SVG Version: 6.00 Build 0)  -->
<svg version="1.1" id="Lag_1" xmlns="http://www.w3.org/2000/svg" xmlns:xlink="http://www.w3.org/1999/xlink" x="0px" y="0px"
	 viewBox="0 0 585 585" style="enable-background:new 0 0 585 585;" xml:space="preserve">
<style type="text/css">
	.st0{fill:#37A8AD;}
	.st1{fill:#F7F8F9;}
	.st2{fill:none;}
	.st3{fill:#FFFFFF;}
</style>
<circle class="st0" cx="292.5" cy="292.5" r="239.38"/>
<path class="st1" d="M292.5,116.83c-44.18,0-80,35.82-80,80s35.82,80,80,80s80-35.82,80-80
	C372.45,152.67,336.66,116.88,292.5,116.83z M292.5,260.83c-35.35,0-64-28.65-64-64s28.65-64,64-64s64,28.65,64,64
	C356.46,232.16,327.83,260.79,292.5,260.83z"/>
<path class="st2" d="M450.38,133.75c-87.35-86.76-228.35-86.76-315.7,0c-87.35,86.76-88.31,227.76-2.15,315.7v-52.62
	c0.07-57.41,46.59-103.93,104-104h112c57.41,0.07,103.93,46.59,104,104v6.68l33.04,2.87C536.43,320.19,524.56,207.42,450.38,133.75z
	"/>
<path class="st3" d="M436.35,484.94l-23.14,15.34C421.25,495.6,428.97,490.47,436.35,484.94z"/>
<path class="st1" d="M148.79,483.95l-0.1-19.53l0,0l-0.16-67.59c0.06-48.58,39.42-87.94,88-88h112c48.58,0.06,87.94,39.42,88,88
	v67.46l0,0l0,19.42c5.53-4.16,10.87-8.59,16-13.19v-21.07v-45.94v-6.68c-0.07-57.41-46.59-103.93-104-104h-112
	c-57.41,0.07-103.93,46.59-104,104v52.62c0,0,0,0-0.01-0.01v21.13C137.75,475.25,143.17,479.74,148.79,483.95z"/>
</svg>
