<?xml version="1.0" encoding="utf-8"?>
<!-- Generator: Adobe Illustrator 23.1.1, SVG Export Plug-In . SVG Version: 6.00 Build 0)  -->
<svg version="1.1" id="Lag_1" xmlns="http://www.w3.org/2000/svg" xmlns:xlink="http://www.w3.org/1999/xlink" x="0px" y="0px"
	 viewBox="0 0 585 585" style="enable-background:new 0 0 585 585;" xml:space="preserve">
<style type="text/css">
	.st0{fill:#37A8AD;}
	.st1{fill:#F7F8F9;}
	.st2{fill:none;}
	.st3{fill:#FFFFFF;}
</style>
<ellipse class="st0" cx="290.6" cy="292.5" rx="290.1" ry="292.5"/>
<path class="st1" d="M290.6,77.8c-53.5,0-97,43.8-97,97.8s43.4,97.8,97,97.8s97-43.8,97-97.8C387.5,121.6,344.1,77.9,290.6,77.8z
	 M290.6,253.8c-42.8,0-77.6-35-77.6-78.2s34.7-78.2,77.6-78.2s77.6,35,77.6,78.2C368.1,218.8,333.4,253.8,290.6,253.8z"/>
<path class="st2" d="M481.9,98.5C376-7.5,205.2-7.5,99.3,98.5s-107,278.3-2.6,385.8V420c0.1-70.1,56.5-127,126-127.1h135.7
	c69.6,0.1,126,56.9,126,127.1v8.2l40,3.5C586.2,326.3,571.8,188.5,481.9,98.5z"/>
<path class="st3" d="M464.9,527.6l-28,18.7C446.6,540.7,456,534.4,464.9,527.6z"/>
<path class="st1" d="M116.4,526.4l-0.1-23.9l0,0l-0.2-82.6c0.1-59.4,47.8-107.5,106.7-107.5h135.7c58.9,0.1,106.6,48.2,106.7,107.5
	v82.4l0,0v23.7c6.7-5.1,13.2-10.5,19.4-16.1v-25.7v-56.1V420c-0.1-70.1-56.5-127-126-127.1H222.7c-69.6,0.1-126,56.9-126,127.1v64.3
	c0,0,0,0,0,0v25.8C103,515.8,109.6,521.3,116.4,526.4z"/>
</svg>
